<?xml-stylesheet type="text/css" href="../../css/main.css"?>
<svg xmlns="http://www.w3.org/2000/svg" viewBox="0 0 54 51">
    <g>
        <path id="filter_icon" d="M48.4,4c0.6,0,1,0.3,1.1,0.5C49.7,4.6,50,5,50,5.6c0,0.4-0.1,0.8-0.4,1.1L31,27.1l-1,1.1v1.5V40l-6,4.8V29.8v-1.5l-1-1.1
		L4.4,6.7C4,6.3,4,5.8,4,5.5c0-0.2,0.1-0.7,0.5-1.1C4.8,4.1,5.2,4,5.6,4H48.4 M48.4,0H5.6C4.2,0,2.9,0.5,1.8,1.5
		c-2.3,2.1-2.5,5.6-0.4,7.9L20,29.8V49c0,1.1,0.9,2,2,2c0.5,0,0.9-0.2,1.3-0.4l10-8c0.5-0.4,0.7-1,0.8-1.6V29.8L52.5,9.4
		C53.5,8.3,54,7,54,5.6C54,2.5,51.5,0,48.4,0L48.4,0z"/>
    </g>
</svg>
