<svg xmlns="http://www.w3.org/2000/svg" viewBox="0 0 88.1 72.9">
    <g>
        <path fill="#858383" d="M44.1,57c-4.7,0-8.4,3.8-8.4,8.4c0,0.5,0.4,0.9,0.9,0.9s0.9-0.4,0.9-0.9c0-3.6,2.9-6.6,6.6-6.6s6.6,2.9,6.6,6.6
		c0,0.5,0.4,0.9,0.9,0.9s0.9-0.4,0.9-0.9C52.5,60.7,48.7,57,44.1,57z"/>
        <path fill="#858383" d="M83.4,52.3h-6.9C75.3,45,71.3,41,64.7,41H23.4c-6.6,0-10.7,4-11.8,11.3H4.7C2.1,52.3,0,54.4,0,57s2.1,4.7,4.7,4.7h6.9
		c1.2,7.3,5.3,11.3,11.8,11.3h41.3c6.6,0,10.7-4,11.8-11.2h6.9c2.6,0,4.7-2.1,4.7-4.7S86,52.3,83.4,52.3z M4.7,59.8
		c-1.6,0-2.8-1.3-2.8-2.8s1.3-2.8,2.8-2.8h6.7C11.3,55,11.3,56,11.3,57s0.1,1.9,0.1,2.8H4.7z M64.7,71H23.4
		c-8.5,0-10.3-7.6-10.3-14.1s1.8-14.1,10.3-14.1h41.3C73.2,42.9,75,50.5,75,57S73.2,71,64.7,71z M83.4,59.8h-6.7
		c0.1-0.9,0.1-1.8,0.1-2.8s-0.1-1.9-0.1-2.8h6.7c1.6,0,2.8,1.3,2.8,2.8S85,59.8,83.4,59.8z"/>
        <g>
            <ellipse cx="34.4" cy="51.4" fill="#858383" rx="2.1" ry="3.7"/>
            <ellipse cx="53.2" cy="51.4" fill="#858383" rx="2.1" ry="3.7"/>
        </g>
        <g transform="translate(0,-952.36218)">
            <path fill="#858383" d="M43.8,952.4c-5.6,0-10.3,3.6-12.1,8.5c-4.6,1.3-7.9,5.5-7.9,10.5c0,5,3.4,9.2,8.1,10.5v12.4c0,0.5,0.4,1,1,1h21.9
			c0.5,0,1-0.4,1-1v-12.4c4.7-1.3,8.1-5.5,8.1-10.5c0-5-3.4-9.2-7.9-10.5C54.1,955.9,49.4,952.4,43.8,952.4z M43.8,954.3
			c4.9,0,9.1,3.2,10.5,7.7c0.1,0.3,0.4,0.6,0.7,0.6c4,0.9,7,4.5,7,8.8c0,4.4-3.2,8.1-7.3,8.9c-0.5,0.1-0.8,0.5-0.8,0.9v7.3h-20v-7.3
			c0-0.5-0.3-0.9-0.8-0.9c-4.2-0.8-7.3-4.5-7.3-8.9c0-4.3,3-7.9,7-8.8c0.3-0.1,0.6-0.3,0.7-0.6C34.7,957.5,38.9,954.3,43.8,954.3z
			 M43.8,963.3c-0.5,0-1,0.4-1,1v18.1c0,0.5,0.4,1,1,1s1-0.4,1-1v-18.1C44.8,963.8,44.3,963.3,43.8,963.3z M38.1,969
			c-0.5,0-1,0.4-1,1v12.4c0,0.5,0.4,1,1,1s1-0.4,1-1V970C39,969.5,38.6,969,38.1,969z M49.5,969c-0.5,0-1,0.4-1,1v12.4
			c0,0.5,0.4,1,1,1c0.5,0,1-0.4,1-1V970C50.5,969.5,50.1,969,49.5,969z M33.8,990.5h20v2.9h-20V990.5z"/>
        </g>
    </g>
</svg>
